Coordinates
version=1
nRows=17
nColumns=24
inDegrees=yes

Units are S.I. units (second, meters, Newtons, ...)
Angles are in degrees.

endheader
time	pelvis_tilt	pelvis_list	pelvis_rotation	pelvis_tx	pelvis_ty	pelvis_tz	hip_flexion_r	hip_adduction_r	hip_rotation_r	knee_angle_r	ankle_angle_r	subtalar_angle_r	mtp_angle_r	hip_flexion_l	hip_adduction_l	hip_rotation_l	knee_angle_l	ankle_angle_l	subtalar_angle_l	mtp_angle_l	lumbar_extension	lumbar_bending	lumbar_rotation
      4.04500000	     35.64269347	     -0.21513164	     -0.86405261	     -0.15001363	      0.64549599	     -0.25710252	    -54.66630559	      0.44454621	     -5.16617005	    -22.51384847	     14.57452364	     12.29696139	      0.00000000	     -9.19052095	      0.44543072	    -13.15563316	     -8.67307331	      6.28389343	     18.90538464	      0.00000000	    -60.66065075	     -2.00776865	      4.66838719
      4.05000000	     35.82588306	     -0.00443544	     -1.17816128	     -0.14208708	      0.64515033	     -0.25704740	    -54.24364510	     -0.12157069	     -5.43940658	    -24.81431802	     13.01627751	     12.01752403	      0.00000000	     -9.25693941	      0.79079380	    -12.43234309	     -9.86736350	      5.80867477	     17.96124596	      0.00000000	    -60.78613185	     -2.51350414	      4.54695946
      4.05500000	     35.98481160	      0.21302293	     -1.42328370	     -0.13424547	      0.64481892	     -0.25714139	    -53.68495634	     -0.66887199	     -5.82595429	    -27.23138233	     11.27996388	     11.66001776	      0.00000000	     -9.22286695	      1.15949585	    -11.53049416	    -11.29234052	      5.40491399	     16.69591069	      0.00000000	    -60.90750021	     -2.94029343	      4.39195939
      4.06000000	     36.13715070	      0.48234705	     -1.61744977	     -0.12643367	      0.64450208	     -0.25726420	    -53.03060545	     -1.22781705	     -6.31364420	    -29.73614199	      9.39701567	     11.16390462	      0.00000000	     -9.15561675	      1.59121411	    -10.59601924	    -12.84283814	      5.05601913	     15.35089658	      0.00000000	    -61.02649603	     -3.36968038	      4.18038436
      4.06500000	     36.14352791	      0.74127143	     -1.53404935	     -0.11868735	      0.64406196	     -0.25774840	    -52.15984913	     -1.60982553	     -7.03931756	    -32.27329993	      7.35424928	     10.66897241	      0.00000000	     -8.80583435	      1.99822800	     -9.28353125	    -14.66962044	      4.92525338	     13.81336656	      0.00000000	    -61.01039764	     -3.51657762	      3.75343051
      4.07000000	     36.24806468	      1.05537987	     -1.61624884	     -0.11092492	      0.64377057	     -0.25809157	    -51.32041632	     -2.18096283	     -7.70688677	    -34.84469644	      5.24508307	      9.86003339	      0.00000000	     -8.65149597	      2.52292201	     -8.23264167	    -16.41443051	      4.73226668	     12.32200499	      0.00000000	    -61.08273897	     -3.84152496	      3.43714003
      4.07500000	     36.37545719	      1.38904350	     -1.68887567	     -0.10318813	      0.64351393	     -0.25851272	    -50.45364527	     -2.78944956	     -8.38645688	    -37.41461968	      3.12267579	      8.90626654	      0.00000000	     -8.54420582	      3.10492832	     -7.20106377	    -18.17131284	      4.68341427	     10.79357582	      0.00000000	    -61.17484538	     -4.14977722	      3.11840167
      4.08000000	     36.47146572	      1.72265781	     -1.69013857	     -0.09547945	      0.64326791	     -0.25905637	    -49.52219204	     -3.38256391	     -9.14423646	    -39.94674567	      1.02029229	      7.82309382	      0.00000000	     -8.41682713	      3.70375592	     -6.17012547	    -19.93913996	      4.76173229	      9.26293792	      0.00000000	    -61.22957805	     -4.37440059	      2.76685236
      4.08500000	     36.60091979	      2.05783620	     -1.72609231	     -0.08780229	      0.64309923	     -0.25961982	    -48.58888463	     -4.02663918	     -9.84557039	    -42.44032249	     -0.95373020	      6.61694332	      0.00000000	     -8.39178580	      4.33796749	     -5.21777294	    -21.62359812	      4.96865037	      7.79474106	      0.00000000	    -61.31166623	     -4.61520601	      2.45170690
      4.09000000	     36.71973132	      2.39238166	     -1.73182757	     -0.08016379	      0.64298199	     -0.26024642	    -47.62016039	     -4.66314562	    -10.51664607	    -44.87619754	     -2.75349668	      5.34936701	      0.00000000	     -8.41588964	      4.98800147	     -4.27743901	    -23.21909546	      5.31641329	      6.40758605	      0.00000000	    -61.37774611	     -4.81005991	      2.13905930
      4.09500000	     36.89808589	      2.71904097	     -1.81825860	     -0.07257092	      0.64300491	     -0.26081749	    -46.68859203	     -5.36552701	    -11.09430153	    -47.23810196	     -4.29779479	      4.03662475	      0.00000000	     -8.60386114	      5.65500842	     -3.47181504	    -24.65394062	      5.74296359	      5.13484576	      0.00000000	    -61.49444240	     -5.06389879	      1.88753237
      4.10000000	     36.96189686	      2.98945202	     -1.70518993	     -0.06505508	      0.64299568	     -0.26162661	    -45.64471870	     -5.89706920	    -11.73822277	    -49.49341674	     -5.55832325	      2.77085319	      0.00000000	     -8.66967549	      6.23528361	     -2.58436142	    -26.11164009	      6.40039777	      3.93772671	      0.00000000	    -61.50043135	     -5.07891426	      1.58556982
      4.10500000	     37.19014648	      3.28996430	     -1.81702911	     -0.05755664	      0.64324426	     -0.26216884	    -44.75183911	     -6.59183588	    -12.17643487	    -51.65568491	     -6.43624731	      1.52370535	      0.00000000	     -9.08782322	      6.87329811	     -1.96800817	    -27.25406208	      7.07277375	      2.91955781	      0.00000000	    -61.65218649	     -5.31221251	      1.38598554
      4.11000000	     37.23228792	      3.47302182	     -1.66484099	     -0.05021541	      0.64346119	     -0.26300992	    -43.64749327	     -7.00611805	    -12.64291169	    -53.72227326	     -7.04388256	      0.38625567	      0.00000000	     -9.29325333	      7.34275453	     -1.15345857	    -28.43302652	      7.93394626	      2.00398014	      0.00000000	    -61.63741965	     -5.21971775	      1.16977405
      4.11500000	     37.45236172	      3.69189223	     -1.68575720	     -0.04295354	      0.64393377	     -0.26357151	    -42.72813418	     -7.53310919	    -12.97295529	    -55.66336040	     -7.17740846	     -0.69604489	      0.00000000	     -9.83737443	      7.84292250	     -0.59193032	    -29.32991116	      8.75921027	      1.28878467	      0.00000000	    -61.80159423	     -5.31632193	      1.01604008
      4.12000000	     37.53320375	      3.81137821	     -1.57704319	     -0.03577170	      0.64446831	     -0.26426082	    -41.63873164	     -7.86856258	    -13.24484506	    -57.49332424	     -7.09769433	     -1.66187799	      0.00000000	    -10.27639045	      8.20198997	      0.05685872	    -30.15636705	      9.70232699	      0.69870520	      0.00000000	    -61.82273057	     -5.22638489	      0.88358018
      4.12500000	     37.65376374	      3.91816784	     -1.45940858	     -0.02876780	      0.64515075	     -0.26485659	    -40.58521555	     -8.16262521	    -13.50727461	    -59.19872714	     -6.62995896	     -2.53241957	      0.00000000	    -10.82735984	      8.48919161	      0.54245035	    -30.82830861	     10.61492654	      0.30550806	      0.00000000	    -61.91623151	     -5.13118743	      0.78369474
